<svg width="1110" height="288" fill="none" xmlns="http://www.w3.org/2000/svg"><mask id="a" style="mask-type:alpha" maskUnits="userSpaceOnUse" x="0" y="0" width="1110" height="288"><path d="M0 6a6 6 0 0 1 6-6h1098c3.31 0 6 2.686 6 6v276c0 3.314-2.69 6-6 6H6a6 6 0 0 1-6-6V6Z" fill="#C4C4C4"/></mask><g mask="url(#a)"><path d="M0 6a6 6 0 0 1 6-6h1098c3.31 0 6 2.686 6 6v276c0 3.314-2.69 6-6 6H6a6 6 0 0 1-6-6V6Z" fill="#685ED6"/><path opacity=".15" d="M831.999 288 267.482 0H1112v288H831.999Z" fill="#fff"/></g></svg>